<svg width="24" height="24" viewBox="0 0 24 24" fill="none" xmlns="http://www.w3.org/2000/svg">
<g clip-path="url(#clip0_5208_42)">
<path d="M12 0.47998C8.94469 0.47998 6.01453 1.69369 3.85411 3.85411C1.69369 6.01453 0.47998 8.94469 0.47998 12C0.480059 13.5128 0.778111 15.0108 1.35712 16.4084C1.93612 17.8061 2.78475 19.076 3.85453 20.1457C4.92432 21.2154 6.19432 22.0638 7.59202 22.6427C8.98972 23.2216 10.4878 23.5195 12.0006 23.5194C13.5134 23.5193 15.0114 23.2213 16.409 22.6422C17.8067 22.0632 19.0766 21.2146 20.1463 20.1448C21.216 19.075 22.0644 17.805 22.6433 16.4073C23.2222 15.0096 23.5201 13.5116 23.52 11.9988C23.52 5.63758 18.3612 0.47998 12 0.47998ZM12 21.1188C10.7936 21.1326 9.59647 20.907 8.47791 20.4549C7.35936 20.0028 6.34162 19.3333 5.48365 18.4851C4.62567 17.6369 3.94452 16.6269 3.47963 15.5136C3.01474 14.4003 2.77537 13.2058 2.77537 11.9994C2.77537 10.7929 3.01474 9.59845 3.47963 8.48516C3.94452 7.37187 4.62567 6.36187 5.48365 5.51369C6.34162 4.6655 7.35936 3.99597 8.47791 3.54389C9.59647 3.0918 10.7936 2.86614 12 2.87998C13.2064 2.86614 14.4035 3.0918 15.522 3.54389C16.6406 3.99597 17.6583 4.6655 18.5163 5.51369C19.3743 6.36187 20.0554 7.37187 20.5203 8.48516C20.9852 9.59845 21.2246 10.7929 21.2246 11.9994C21.2246 13.2058 20.9852 14.4003 20.5203 15.5136C20.0554 16.6269 19.3743 17.6369 18.5163 18.4851C17.6583 19.3333 16.6406 20.0028 15.522 20.4549C14.4035 20.907 13.2064 21.1326 12 21.1188ZM9.00118 11.7C9.99478 11.7 10.8 10.7604 10.8 9.59998C10.8 8.43958 9.99358 7.49998 8.99998 7.49998C8.00638 7.49998 7.19998 8.43958 7.19998 9.59998C7.19998 10.7604 8.00638 11.7 9.00118 11.7ZM15 11.7C15.9948 11.7 16.8 10.7604 16.8 9.59998C16.8 8.43958 15.9936 7.49998 15 7.49998C14.0064 7.49998 13.2 8.44078 13.2 9.59998C13.2 10.7592 14.0064 11.7 15 11.7ZM17.2092 13.6032C16.9974 13.4963 16.7522 13.4767 16.5261 13.5485C16.3 13.6202 16.111 13.7777 15.9996 13.9872C15.9588 14.0664 14.9568 15.8988 12.0012 15.8988C9.05998 15.8988 8.05198 14.0832 8.00158 13.9884C7.89369 13.7753 7.70558 13.6138 7.47862 13.5394C7.25166 13.4651 7.00446 13.4839 6.79138 13.5918C6.57831 13.6997 6.41682 13.8878 6.34244 14.1147C6.26806 14.3417 6.28689 14.5889 6.39478 14.802C6.45478 14.9208 7.89238 17.6988 12.0012 17.6988C16.1112 17.6988 17.5464 14.9196 17.6052 14.8008C17.7109 14.5894 17.7286 14.3447 17.6544 14.1202C17.5802 13.8958 17.4201 13.7099 17.2092 13.6032Z" fill="#2C2C2C"/>
</g>
<defs>
<clipPath id="clip0_5208_42">
<rect width="24" height="24" fill="white"/>
</clipPath>
</defs>
</svg>
