<svg width="244" height="243" viewBox="0 0 244 243" fill="none" xmlns="http://www.w3.org/2000/svg">
<path d="M123.136 130.1C117.07 131.9 113.103 133.433 111.236 134.7C109.37 135.967 108.203 137.933 107.736 140.6C110.736 137 114.536 135.2 119.136 135.2C122.47 135.2 125.903 136.567 129.436 139.3C133.036 141.967 135.603 143.3 137.136 143.3C138.136 143.3 139.27 142.8 140.536 141.8C136.536 141 134.536 138.8 134.536 135.2C134.536 133.133 135.27 131.4 136.736 130C138.27 128.533 140.136 127.8 142.336 127.8C145.203 127.8 147.57 128.967 149.436 131.3C151.303 133.633 152.236 136.567 152.236 140.1C152.236 144.767 150.603 148.833 147.336 152.3C144.136 155.767 140.37 157.5 136.036 157.5C131.503 157.5 126.736 155.533 121.736 151.6C118.27 148.867 116.003 147.5 114.936 147.5C114.27 147.5 113.636 147.833 113.036 148.5C113.436 149.233 113.636 149.933 113.636 150.6C113.636 152.667 112.836 154.4 111.236 155.8C109.703 157.133 107.736 157.8 105.336 157.8C101.87 157.8 98.9697 156.4 96.6363 153.6C94.303 150.733 93.1363 147.167 93.1363 142.9C93.1363 132.433 100.97 124.133 116.636 118C122.636 115.667 126.503 113.833 128.236 112.5C129.97 111.167 130.836 109.367 130.836 107.1C130.836 105.1 129.936 103.5 128.136 102.3C126.336 101.1 123.97 100.5 121.036 100.5C118.17 100.5 115.503 101.167 113.036 102.5C114.303 104.167 114.936 105.867 114.936 107.6C114.936 110.133 114.003 112.3 112.136 114.1C110.27 115.833 108.003 116.7 105.336 116.7C102.336 116.7 99.8697 115.7 97.9363 113.7C96.0697 111.7 95.1363 109.133 95.1363 106C95.1363 100.533 97.6363 96.1 102.636 92.7C107.703 89.2333 114.27 87.5 122.336 87.5C130.47 87.5 136.903 89.3 141.636 92.9C146.436 96.5 148.836 101.367 148.836 107.5C148.836 113.967 146.203 118.967 140.936 122.5C136.87 125.233 130.936 127.767 123.136 130.1Z" fill="black"/>
<circle cx="121.5" cy="121.5" r="110" stroke="black" stroke-width="23"/>
<path d="M232 122C232 182.199 182.751 231 122 231C61.2487 231 27 186.5 19 160.5" stroke="black" stroke-width="23"/>
</svg>
